<svg xmlns="http://www.w3.org/2000/svg" width="399.924" height="100.625" viewBox="0 0 2484 625">
  <defs>
    <style>
      .cls-1 {
        fill: #fff;
        fill-rule: evenodd;
      }
    </style>
  </defs>
  <path id="Color_Fill_1" data-name="Color Fill 1" class="cls-1" d="M1894,24v2c3.8,2.39,5.47,7.272,8,11,0.67,0.333,1.33.667,2,1v2l3,2v2c0.67,0.333,1.33.667,2,1v2l3,2v2c0.67,0.333,1.33.667,2,1v2c0.67,0.333,1.33.667,2,1v2l3,2v2c0.67,0.333,1.33.667,2,1v2l3,2v2c0.67,0.333,1.33.667,2,1v2l3,2v2c0.67,0.333,1.33.667,2,1v2l3,2v2h1c0.33,1,.67,2,1,3,0.67,0.333,1.33.667,2,1v2l3,2v2c0.67,0.333,1.33.667,2,1v2l3,2v2c0.67,0.333,1.33.667,2,1v2l3,2v2h1c0.33,1,.67,2,1,3,0.67,0.333,1.33.667,2,1v2l3,2v2c0.67,0.333,1.33.667,2,1v2l3,2v2c0.67,0.333,1.33.667,2,1v2l3,2v2h1c0.33,1,.67,2,1,3,0.67,0.333,1.33.667,2,1v2l3,2v2c0.67,0.333,1.33.667,2,1v2l3,2v2c0.67,0.333,1.33.667,2,1v2l3,2v2c0.67,0.333,1.33.667,2,1v2l3,2v2h1c0.33,1,.67,2,1,3,0.67,0.333,1.33.667,2,1v2l3,2v2c0.67,0.333,1.33.667,2,1v2l3,2v2c0.67,0.333,1.33.667,2,1v2l3,2v2h1c0.33,1,.67,2,1,3,0.67,0.333,1.33.667,2,1v2l3,2v2c0.67,0.333,1.33.667,2,1v2l3,2v2c0.67,0.333,1.33.667,2,1v2l3,2v2h1c0.33,1,.67,2,1,3,0.67,0.333,1.33.667,2,1v2l3,2v2c0.67,0.333,1.33.667,2,1v2l3,2v2c0.67,0.333,1.33.667,2,1v2l3,2c2.01,2.875,1.94,5.175,5,7V47h1c1.43-5.118,4.34-4.45,8-7,0.67-1,1.33-2,2-3h2c0.33-.667.67-1.333,1-2h2c0.33-.667.67-1.333,1-2h2c0.67-1,1.33-2,2-3h2c0.33-.667.67-1.333,1-2h2c0.33-.667.67-1.333,1-2h2c0.67-1,1.33-2,2-3h2V22l3-1c0.33-.667.67-1.333,1-2h2c0.67-1,1.33-2,2-3h2V15l3-1c0.33-.667.67-1.333,1-2h2c0.67-1,1.33-2,2-3h2V8l3-1c0.33-.667.67-1.333,1-2h2c0.67-1,1.33-2,2-3h2c0.33-.667.67-1.333,1-2h8a18.908,18.908,0,0,0,3,3V341c-1.14,1.139-.4,0-1,2l-3,1c-2.63,2.344-12.45,1-17,1h-45c-4.39,0-13.48,1.235-16-1-4.34-1.262-2.88-2.026-5-5l-3-2v-2c-0.67-.333-1.33-0.667-2-1v-2l-3-2v-2h-1c-0.33-1-.67-2-1-3-0.67-.333-1.33-0.667-2-1v-2l-3-2v-2c-0.67-.333-1.33-0.667-2-1v-2l-3-2v-2c-0.67-.333-1.33-0.667-2-1v-2l-3-2v-2c-0.67-.333-1.33-0.667-2-1v-2l-3-2v-2h-1c-0.33-1-.67-2-1-3-0.67-.333-1.33-0.667-2-1v-2l-3-2v-2c-0.67-.333-1.33-0.667-2-1v-2l-3-2v-2c-0.67-.333-1.33-0.667-2-1v-2l-3-2v-2h-1c-0.33-1-.67-2-1-3-0.67-.333-1.33-0.667-2-1v-2l-3-2v-2c-0.67-.333-1.33-0.667-2-1v-2l-3-2v-2c-0.67-.333-1.33-0.667-2-1v-2l-3-2v-2h-1c-0.33-1-.67-2-1-3-0.67-.333-1.33-0.667-2-1v-2l-3-2v-2c-0.67-.333-1.33-0.667-2-1v-2l-3-2v-2c-0.67-.333-1.33-0.667-2-1v-2l-3-2v-2c-0.67-.333-1.33-0.667-2-1v-2l-3-2v-2h-1c-0.33-1-.67-2-1-3-0.67-.333-1.33-0.667-2-1v-2l-3-2v-2c-0.67-.333-1.33-0.667-2-1v-2l-3-2v-2c-0.67-.333-1.33-0.667-2-1v-2l-3-2v-2h-1c-0.33-1-.67-2-1-3-0.67-.333-1.33-0.667-2-1v-2l-3-2v-2c-0.67-.333-1.33-0.667-2-1v-2l-3-2v-2c-0.67-.333-1.33-0.667-2-1v-2l-3-2v-2c-0.67-.333-1.33-0.667-2-1v-2c-0.67-.333-1.33-0.667-2-1v-2l-3-2v-2c-0.67-.333-1.33-0.667-2-1v-2l-3-2v-2c-0.67-.333-1.33-0.667-2-1v-2l-3-2v-2c-0.67-.333-1.33-0.667-2-1v-2l-3-2v-2c-0.67-.333-1.33-0.667-2-1v-2c-0.67-.333-1.33-0.667-2-1v-2h-1a8.156,8.156,0,0,1-2-4h-1V318h-1v3c-2.44,1.388-3.28,3.778-5,5h-2c-0.33.667-.67,1.333-1,2l-3,1v1h-2c-0.67,1-1.33,2-2,3h-2c-0.33.667-.67,1.333-1,2h-2c-0.67,1-1.33,2-2,3h-2c-0.33.667-.67,1.333-1,2h-2c-0.33.667-.67,1.333-1,2h-2c-0.67,1-1.33,2-2,3h-2v1l-3,1c-0.33.667-.67,1.333-1,2h-2c-0.67,1-1.33,2-2,3h-2c-0.33.667-.67,1.333-1,2h-2c-0.33.667-.67,1.333-1,2h-2c-0.67,1-1.33,2-2,3h-2c-0.33.667-.67,1.333-1,2l-3,1v1h-2c-0.67,1-1.33,2-2,3h-2v1h-8a13.415,13.415,0,0,0-3-4V50c0-5.959-1.35-21.408,1-25,2.96-4.512,13.68-3,21-3h61C1892.13,23.719,1891.63,23.355,1894,24ZM1452,325v-2q-4.005-3.5-8-7v-2l-3-2v-2l-3-2c-0.33-1.333-.67-2.667-1-4-0.67-.333-1.33-0.667-2-1-0.33-1.333-.67-2.667-1-4h-1v-2h-1v-2h-1c-0.67-2-1.33-4-2-6h-1c-0.67-3-1.33-6-2-9h-1v-4h-1v-4h-1v-8h-1V251h-1V237h-1V220c-1.54-5.528-1-14.854-1-22V147h1V130h1V116h1V103h1V95h1V91h1V87h1V84h1V81h1V78c11.66-26.549,34.22-48.477,61-60h3V17h3V16h3V15h5V14h6V13h11V12h22V11h54c12.79,0,32.31-2,43,1,6.32,1.771,16.83-.732,23,1h12v1h6v1h4v1h4v1l6,1v1h2v1l9,3c0.33,0.667.67,1.333,1,2l4,1c0.33,0.667.67,1.333,1,2l4,1c0.33,0.667.67,1.333,1,2l3,1,3,4h2l6,7q4.005,3.5,8,7v2l3,2c0.33,1,.67,2,1,3,0.67,0.333,1.33.667,2,1v2c0.67,0.333,1.33.667,2,1,0.33,1.333.67,2.667,1,4,0.67,0.333,1.33.667,2,1,0.33,1.333.67,2.667,1,4h1c0.67,2,1.33,4,2,6h1v3h1v2h1v3h1c0.33,2.333.67,4.667,1,7h1v5h1v9h1v13h1v14h1v18c3.05,10.976,1,30.911,1,44,0,7.438.63,17.194-1,23v18h-1v14h-1v13h-1v9h-1v5h-1v4h-1v3h-1v3c-8.1,18.748-19.34,34.753-35,46l-3,4h-2c-0.33.667-.67,1.333-1,2l-3,1v1l-4,1c-0.33.667-.67,1.333-1,2l-4,1v1l-6,2v1h-3v1h-3v1h-3v1h-3v1h-4v1l-17,1c-6.46,1.792-17.39-.832-24,1-10.72,2.97-32.91,1-46,1h-52v-1h-23v-1h-11v-1h-6v-1h-4v-1h-4v-1h-3v-1h-2v-1h-3v-1l-6-2v-1h-2v-1l-4-1c-0.33-.667-0.67-1.333-1-2h-2v-1l-3-1c-0.33-.667-0.67-1.333-1-2h-2c-0.67-1-1.33-2-2-3h-2c-0.33-.667-0.67-1.333-1-2C1457.68,328.808,1455.46,325.966,1452,325ZM324,344l-4,1v1H295c-20.861,0-43.736-.063-63-1-3.432-5.935-10.24-10.235-15-15l-3-4-2-1v-2l-17-16v-2l-17-16v-2l-17-16v-2l-17-16v-2l-2-1v-1l-15-14v-2l-17-16v-2l-3-2-5-6v-5c1.643-1.351,2.52-3.482,4-5l3-2v-2l13-12v-2l14-13v-2l8-7,2-3,4-1v-1h26c21.592,0,48.772,1.821,67-2,0.661-1.166,1.614-1.42,2-2v-2l2-1v-2l2-1v-3h1v-2h1v-4h1v-4h1V117c-0.038-11.477-5.447-27.812-15-29-1.944-1.7-7.459-1-11-1H123c-13.631,0-30.045-1.175-42,1-5.343,12-3,37-3,54V302c0,4.423,1.223,13.435-1,16-1.444,5.121-4.332,4.445-8,7l-2,3H65l-1,2H62l-1,2H59l-2,3H55v1l-3,1-1,2H49l-2,3H45l-1,2H42l-1,2H39l-2,3H35v1l-3,1-1,2H29l-2,3H25l-1,2H22l-1,2H19l-2,3H15l-1,2a15.532,15.532,0,0,1-9,3c-1.166-1.361-1.825-1.528-4-2-1.6-8.924-1-21.478-1-32V44c0-7.423-1.556-17.933,3-21,3.255-3.194,12.737-2,19-2H223c27.708,0,56.3-2.043,73,9l2,3h2l5,6,6,5v2l3,2v2l2,1q0.5,2,1,4h1v2h1v2h1q1,3,2,6h1v3h1v3h1v3h1v4h1v4h1v5h1q0.5,9,1,18h1c1.652,5.938-.776,24.787-2,29v6h-1v5h-1v4h-1v3h-1v4h-1v2h-1v3h-1v2h-1v3h-1v2h-1v2l-2,1-1,4-2,1v2l-2,1v2l-9,8-4,5h-2l-1,2-4,1-1,2-5,1v1h-2v1l-12,2v1H202v1l17,16v2l17,16v2l17,16v2l17,16v2l17,16v2l3,2,6,7,8,7v2l4,3,7,8,6,5,1,3,3,2v7C323.861,343.139,324.6,342,324,344ZM375,21H636c11.767,0,25.862-.812,36,1,0.945,1.8,1.385,1.575,2,4h1v5c-2.528,2.191-3.07,5.114-5,8l-2,1v2l-3,2v2l-2,1v2l-2,1v2l-3,2v2h-1l-1,3-2,1v2l-3,2v2h-1l-1,3-2,1v2l-3,2c-3.25,4.654-3.977,11.126-11,12-2.091,1.79-8.266,1-12,1H462c-4,0-9.466-.658-12,1v1c-4.494,3.692-3,7.416-3,15v41a21.9,21.9,0,0,1,5,4H563c18.673,0,41.1-2.026,58,1,0.945,1.8,1.385,1.574,2,4,1.916,2.17,1,9.123,1,13v37l-4,3v1H452c-1.139,1.139,0,.4-2,1-0.945,1.8-1.385,1.574-2,4-2.337,2.657-1,12.424-1,17v46a21.9,21.9,0,0,1,5,4H621c3.895,0,10.806-.906,13,1,5.973,1.651,6.891,7.529,10,12l3,2v2h1q0.5,1.5,1,3l2,1v2l3,2v2h1q0.5,1.5,1,3l2,1v2l3,2v2h1q0.5,1.5,1,3l2,1v2l3,2v2l2,1v2l2,1v2l2,1c1.23,1.608.94,4.107,1,7-1.3,1.048-1.489,2.043-3,3-3.26,3.192-12.734,2-19,2H396c-8.915,0-18.89.455-25-2-0.589-1.1-1.752-1.584-2-2v-2h-1V27h1V25l3-2V22h3V21Zm322,0c26.293-.069,55.383-1.292,80,1l4,5h1v3h1v3h1v3h1q0.5,3.5,1,7h1v3h1v3h1v3h1v3h1q1,5,2,10h1q0.5,3,1,6h1v4h1v3h1v3h1v3h1v3h1v3h1v4c13.835,37.87,24.27,79.087,38,117v4h1q0.5,3,1,6h1v3h1v3h1v3h1q1,5,2,10h1v3h1v3h1l3,13h1q2.5,9,5,18h1q0.5,1,1,2h2v1c6.253,0.072,13.192-.1,18-1,0.615-1.249,1.674-1.469,2-2v-2h1l3-13h1v-3h1v-3h1v-3h1v-3h1v-3h1v-4h1v-3h1v-3h1v-3h1v-3h1v-4c11.926-32.6,21.163-68.337,33-101v-4h1q0.5-3,1-6h1v-3h1v-3h1v-3h1q1-5,2-10h1V94h1V91h1q1-5,2-10h1l3-13h1V65h1V62h1V59h1V56h1V52h1V49h1V46h1V43h1V40h1V37h1V33h1V30h1V27l5-4V22h4c2.273-2.057,16.352-1,21-1h44c6.7,0,13.88-.379,16,4v6h-1q-1.005,5-2,10h-1v3h-1v3h-1v4h-1v3h-1v3h-1v3h-1v3h-1v3h-1v4h-1c-0.33,2-.67,4-1,6h-1v3h-1v3h-1q-1.005,5-2,10h-1v3h-1v3h-1c-0.33,2.333-.67,4.667-1,7-14.18,38.856-24.94,81.1-39,120v4h-1v3h-1v3h-1v3h-1v3h-1v4h-1v3h-1v3h-1v3h-1v3h-1v3h-1q-1,5-2,10h-1q-1,5-2,10h-1q-0.5,3-1,6h-1v3h-1v3h-1v3h-1q-1,5-2,10h-1v3h-1v3h-1l-3,13h-1c-2.941,7.4-1.786,17.895-10,20-2.426,2.388-7.139,2-12,2H798v-1l-5-1-5-7q-1-5-2-10c-7.218-18.054-11.847-38.932-19-57q-0.5-3.5-1-7c-14.163-38.834-24.973-81.11-39-120v-4h-1v-3h-1v-3h-1v-3h-1v-3h-1v-4h-1v-3h-1v-3h-1v-3h-1v-3h-1v-3h-1q-0.5-3.5-1-7h-1l-3-13h-1q-0.5-3-1-6h-1V79h-1V76h-1V73h-1l-3-13h-1V57h-1l-3-13h-1V41h-1V38c-0.78-2.069-4.2-8.635-3-12C692.784,23.8,695.648,22.7,697,21Zm380,0h269c12.08,0,26.56-.867,37,1a21.855,21.855,0,0,0,4,5V67c0,6.1,1.05,14.461-1,19q-3.495,4-7,8h-2q-3.495,4-7,8h-2q-3.495,4-7,8h-2q-3.495,4-7,8h-2q-4.005,4.5-8,9h-2q-3.495,4-7,8h-2l-6,7-3,1q-3.495,4-7,8h-2q-4.005,4.5-8,9h-2l-3,4c-1.33,1-2.67,2-4,3v1h-2q-3.495,4-7,8h-2q-3.495,4-7,8c-13.97,10.107-25.02,22.893-39,33l-3,4c-1.33,1-2.67,2-4,3v1h-2q-3.495,4-7,8h-2q-4.005,4.5-8,9h-2q-3.495,4-7,8h-2q-3.495,4-7,8h-2q-3.495,4-7,8h-2q-4.005,4.5-8,9c-2.88,2.088-3.99,1.554-6,5h202v1h3v1h1c0.66,1.266,1.58,1.374,2,2v2c0.67,0.333,1.33.667,2,1,0.67,2,1.33,4,2,6,0.67,0.333,1.33.667,2,1v2h1v2h1v2h1v2c0.67,0.333,1.33.667,2,1v2h1v2h1v2c0.67,0.333,1.33.667,2,1,0.67,2,1.33,4,2,6,0.67,0.333,1.33.667,2,1v2h1v2h1v2h1v2c0.67,0.333,1.33.667,2,1,0.33,1.333.67,2.667,1,4h1c2.28,4.04,2.85,5.583,3,12-1.29.731-2.65,2.808-3,3-4.44,2.429-19.35,1-26,1H1091c-8.88,0-17.97.829-20-6-3.32-3.024-2-12.862-2-19V275h1v-2c1.67-2,3.33-4,5-6h2q3.495-4,7-8h2v-1c1.33-1,2.67-2,4-3l3-4h2q4.005-4.5,8-9h2q3.495-4,7-8h2q3.495-4,7-8h2q4.005-4.5,8-9h2q3.495-4,7-8h2q3.495-4,7-8h2q4.005-4.5,8-9h2q3.495-4,7-8h2q3.495-4,7-8h2q4.005-4.5,8-9h2q3.495-4,7-8h2q3.495-4,7-8h2q4.005-4.5,8-9h2q3.495-4,7-8h2q3.495-4,7-8h2q4.005-4.5,8-9h2q3.495-4,7-8h2q4.005-4.5,8-9h2c0.67-1,1.33-2,2-3q5.505-4.5,11-9V87H1106V86c-5.64-1.6-6.47-6.318-9-11h-1V73h-1V71c-0.67-.333-1.33-0.667-2-1-0.67-2-1.33-4-2-6-0.67-.333-1.33-0.667-2-1-0.67-2-1.33-4-2-6-0.67-.333-1.33-0.667-2-1V54h-1V52h-1V50h-1V48c-0.67-.333-1.33-0.667-2-1-0.67-2-1.33-4-2-6-0.67-.333-1.33-0.667-2-1V38c-1.95-3.467-4.41-5.98-5-11h1V24h1V23c1.32-.516-0.28-0.393,1-1h3V21ZM2253,210c-3.09,13.7-2,34.144-2,51,0,7.889-1.18,16.177,5,18,1.96,1.688,7.45,1,11,1h165c3.55,0,9.04-.69,11,1,5.38,1.485,5.29,5.1,8,9l3,2v2c0.67,0.333,1.33.667,2,1v2c0.67,0.333,1.33.667,2,1v2l3,2v2h1c0.33,1,.67,2,1,3,0.67,0.333,1.33.667,2,1v2l3,2v2h1c0.33,1,.67,2,1,3,0.67,0.333,1.33.667,2,1v2l3,2v2c0.67,0.333,1.33.667,2,1v2c0.67,0.333,1.33.667,2,1v2l3,2c1.86,2.73,1.95,5.314,2,10-1.29.732-2.65,2.807-3,3-4.56,2.5-20.17,1-27,1H2200c-8.92,0-18.89.453-25-2-2.58-5.893-2-16.212-2-25V43c0-7.27-1.45-17,3-20,3.03-2.976,11.1-2,17-2h270c5.26,0,14.51-1.283,18,1v1c2.73,2.243,2.94,2.818,3,8-2.23,2-3.26,5.422-5,8-0.67.333-1.33,0.667-2,1v2c-0.67.333-1.33,0.667-2,1v2l-3,2v2h-1c-0.33,1-.67,2-1,3-0.67.333-1.33,0.667-2,1v2l-3,2v2h-1c-0.33,1-.67,2-1,3-0.67.333-1.33,0.667-2,1v2l-3,2v2c-0.67.333-1.33,0.667-2,1v2c-0.67.333-1.33,0.667-2,1v2l-3,2v2c-0.67.333-1.33,0.667-2,1-2.35,3.422-1.59,5.327-7,6-1.96,1.686-7.44,1-11,1H2266c-6.01,0-10.58-.581-13,3-2.77,2.751-2,9.525-2,15,0,13.25-2.07,32.082,2,42,9.64,4.189,36.22,2,50,2h82c14.59,0,32.1-1.3,45,1,0.94,1.8,1.38,1.574,2,4,1.92,2.17,1,9.123,1,13v37c-1.33,1-2.67,2-4,3v1H2257C2255.83,209.361,2255.18,209.528,2253,210ZM1530,81c-2.27,1.935-8.99.686-12,2v1l-4,1c-1.67,2-3.33,4-5,6-0.67.333-1.33,0.667-2,1v2c-0.67.333-1.33,0.667-2,1v2h-1v3h-1q-1.005,12.5-2,25v13h-1v25c-2.25,8.136-2.28,32.873,0,41v25h1v16c1.53,9.157.67,22.548,5,29l3,2c1.67,2,3.33,4,5,6l6,2v1h6c5.5,1.586,14.87,1,22,1,19.14,0,38.02,1.459,55,0,19.61-1.685,53.39,4.458,66-4,0.67-1,1.33-2,2-3,1.67-1.333,3.33-2.667,5-4v-2h1c0.33-1.333.67-2.667,1-4h1v-3h1v-7h1V244h1V226h1V197h1c1.35-4.848-.01-24.471-1-28V155q-0.495-15.5-1-31h-1V108h-1v-7h-1V98h-1c-0.33-1.333-.67-2.667-1-4h-1V92c-1.33-1-2.67-2-4-3-0.67-1-1.33-2-2-3-9.19-6.477-27.57-5-43-5h-97ZM1105,613c-10.24,1.9-27.76,1.881-38,0-1.86-5.076-1-14.279-1-21V548H989c0.066,17.152.463,36.46-1,52l-4,3v1h-2q-0.5,1-1,2l-3,1v1h-2l-2,3h-2v1l-3,1q-0.5,1-1,2h-2l-2,3h-2q-0.5,1-1,2h-2q-0.5,1-1,2c-2.464,1.613-4.007,1.836-8,2-1.492-4.094-1-11.352-1-17V457c7.9-4.091,25.671-2.075,37-2,1.139,1.139,0,.4,2,1,1.607,17.825.988,39.55,1,59h77V469l3-2v-1h2c0.67-1,1.33-2,2-3h2v-1l3-1c0.33-.667.67-1.333,1-2h2c0.67-1,1.33-2,2-3h2v-1l3-1c0.33-.667.67-1.333,1-2h2c0.67-1,1.33-2,2-3h2c0.33-.667.67-1.333,1-2h2v-1c1.36-.924,1.76-0.692,4-1v-1l3,1c1.49,4.094,1,11.352,1,17V611C1104.86,612.139,1105.6,611,1105,613Zm549-163,32,1,24,1v1l6,1v1l6,2v1h2c0.33,0.667.67,1.333,1,2h2c0.67,1,1.33,2,2,3h2l3,4c0.67,0.333,1.33.667,2,1v2c1.33,1,2.67,2,4,3,0.33,1.333.67,2.667,1,4,0.67,0.333,1.33.667,2,1v2h1v2h1v3h1v3h1v5h1v12h1v18h1c1.41,5.067.02,19.362-1,23q-0.495,15.5-1,31c-4.41,14.6-9.8,23.087-21,31-0.67,1-1.33,2-2,3l-6,2v1l-4,1v1h-4v1l-20,1c-5.53,1.528-14.85,1-22,1-9.2,0-21.51,1.109-29-1l-21-1v-1h-3v-1h-2v-1h-3c-0.33-.667-0.67-1.333-1-2l-4-1c-0.33-.667-0.67-1.333-1-2h-2q-3.495-4-7-8c-1.33-1-2.67-2-4-3v-2c-0.67-.333-1.33-0.667-2-1-0.33-1.333-.67-2.667-1-4-0.67-.333-1.33-0.667-2-1v-3h-1v-2h-1v-3h-1q-1.005-9.5-2-19V552h-1V518h1V507l3-23h1v-2h1c0.67-2,1.33-4,2-6,6.76-10.682,18.65-19.882,32-24l23-1C1647.38,451,1652.16,451.579,1654,450Zm338,0,32,1,24,1v1l9,2v1h2c0.33,0.667.67,1.333,1,2h2c0.33,0.667.67,1.333,1,2h2c0.67,1,1.33,2,2,3h2c0.67,1,1.33,2,2,3,1.33,1,2.67,2,4,3v2l3,2v2c0.67,0.333,1.33.667,2,1,0.67,2,1.33,4,2,6h1v3h1v3h1v5h1v11h1v18h1c1.27,4.584-.08,21.749-1,25q-0.495,15-1,30c-4.41,14.6-9.8,23.088-21,31-0.67,1-1.33,2-2,3l-6,2v1l-4,1v1h-4v1l-20,1c-5.53,1.528-14.85,1-22,1-9.2,0-21.5,1.108-29-1l-21-1q-7.995-4-16-8-3.495-4-7-8c-1.33-1-2.67-2-4-3v-2c-0.67-.333-1.33-0.667-2-1-0.33-1.333-.67-2.667-1-4-0.67-.333-1.33-0.667-2-1v-3h-1v-2h-1v-3h-1q-1.005-10-2-20V551h-1V518h1V507l3-23h1v-2h1c0.67-2,1.33-4,2-6,0.67-.333,1.33-0.667,2-1v-2c6.28-9.05,18.24-17.372,30-21l23-1C1985.38,451,1990.16,451.579,1992,450ZM338,457c12.89-2.3,30.418-1.013,45-1a12.71,12.71,0,0,1,1,5c-3.3,2.815-4.481,7.379-7,11l-3,2v2l-2,1-1,3h-1v2l-2,1v2l-2,1v2l-3,2v2l-2,1-1,3h-1v2l-2,1v2l-2,1v2l-3,2v2l-2,1-1,3h-1v2l-2,1v2l-2,1v2l-3,2v2l-2,1-1,3h-1v2l-2,1v2l-2,1v2l-2,1v2l-3,2v2l-2,1v2l-2,1v2l-2,1v2l-2,1v2l-2,1v44c-1.2.964-2,3.269-3,4h-2l-1,2h-2l-2,3h-2v1l-3,1-1,2h-2l-2,3h-2l-1,2h-2l-1,2h-2l-2,3h-2v1l-5,1c-2.828-5.5-2-14.619-2-23V556c-2.465-1.656-2.331-3.508-4-6l-2-1v-2l-3-2v-2l-2-1-1-3h-1v-2l-2-1v-2l-2-1v-2l-3-2v-2l-2-1-1-3h-1v-2h-1l-1-3-2-1v-2l-3-2v-2l-2-1v-2l-2-1v-2h-1l-1-3-2-1v-2l-2-1v-2l-3-2v-2l-2-1-1-3h-1v-2l-2-1v-2l-2-1v-2l-3-2v-2l-2-1-1-3h-1v-2l-2-1v-2l-2-1v-2l-3-2v-5c3.844-1.414,10.624-1,16-1h28l3,4h1v2l2,1v2l2,1v2h1l1,3,2,1v2l3,2v2l2,1,1,3h1v2l2,1v2l2,1v2l3,2v2l2,1,1,3h1v2l2,1v2l2,1v2l3,2v2l2,1v2h1l1,3c1.139-1.139.4,0,1-2,3.887-2.6,5.305-8.126,8-12l3-2v-2l2-1,1-3h1v-2l2-1v-2l2-1v-2l2-1v-2l3-2v-2l2-1,1-3h1v-2l2-1v-2C331.71,465.944,336.555,462.472,338,457Zm82-1h68c0.615,1.247,1.673,1.469,2,2v2h1q0.5,3,1,6h1v3h1v3h1v3h1v3h1v3h1q0.5,3,1,6c6.817,17,12.149,35.912,19,53q2.5,9,5,18h1q0.5,3,1,6h1v3h1v3h1v3h1v3h1v3h1q0.5,3,1,6h1v2h1q0.5,3,1,6c2.238,5.622,5.538,11.734,6,19-7.6,3.934-27.709,2.071-39,2-1.048-1.3-2.043-1.489-3-3h-1q-0.5-3-1-6h-1v-3h-1v-3h-1v-3h-1v-3h-1v-3h-1v-3h-1q-0.5-3-1-6h-1c-2.9-2.548-14.074-1-19-1H418q-2.5,6-5,12v3h-1v2h-1q-0.5,3-1,6h-1c-1.936,4.829-.627,8.6-6,10-1.805,1.606-6.646,1-10,1H367c-1.382-2.612-1.769-1.693-2-6,3.013-3.29,3.027-10.5,5-15h1v-2h1q0.5-3,1-6c1.755-4.373,4.246-9.627,6-14q1-4.5,2-9c10.876-24.823,18.162-53.141,29-78q0.5-3,1-6h1q0.5-3,1-6h1v-2h1v-3h1v-3h1v-3h1v-3A10.283,10.283,0,0,0,420,456Zm139,0h51c13.608,26.881,25.119,56.335,38,84,1.139-1.139.4,0,1-2h1v-3h1q0.5-2,1-4h1v-3h1v-2h1q0.5-2,1-4h1v-3h1v-2h1q0.5-2,1-4h1v-3h1q0.5-2,1-4h1v-3h1v-2h1q0.5-2,1-4h1v-3h1v-2h1v-2h1v-2h1v-3h1q0.5-2,1-4h1v-3h1v-2h1v-2h1v-2h1v-3h1q0.5-2,1-4h1v-2h1v-3h1c1.342-2.457-.288-1.257,2-3v-1h51c1.4,3.851,1,10.619,1,16V612c-7.294,3.781-23.379,2.075-34,2-1.139-1.139,0-.4-2-1-1.434-8.338-1-20.085-1-30V534c0-5.641,1.337-26.32-1-29l-3,9h-1l-3,9h-1v3h-1q-0.5,2-1,4h-1v3h-1v2h-1q-0.5,2-1,4h-1v3h-1v2h-1q-0.5,2-1,4h-1v3h-1q-0.5,2-1,4h-1v3h-1q-0.5,2-1,4h-1q-0.5,2.5-1,5h-1q-0.5,2-1,4h-1c-1.018,1.947-1.348,7.01-3,8h-2c-1.8,1.606-6.646,1-10,1H630l-2-3h-1l-3-9h-1v-2h-1q-0.5-2-1-4h-1v-3h-1q-0.5-2-1-4h-1v-3h-1v-2h-1q-0.5-2-1-4h-1v-3h-1v-2h-1v-2h-1v-2h-1v-3h-1q-0.5-2-1-4h-1v-3h-1v-2h-1v-2h-1v-2h-1v-3h-1v-2h-1l-4-11h-1V612l-3,1c-1.672,1.515-5.83,1-9,1-8.038.013-17.491,0.265-24-1-1.442-8.018-1-19.409-1-29V486C558,476.1,557.507,464.319,559,456ZM931,613c-11.029,2.04-29.97,2.023-41,0l-6-15q-0.5-3-1-6c-1.46-3.675-3.44-7.164-4-12H808c-0.78,4.94-3.395,9.025-5,13q-1,4.5-2,9h-1v2h-1v3h-1c-1.623,3.881.7,4.689-4,6-1.792,1.615-6.656,1-10,1-9.258.007-20.314,0.48-28-1-0.753-4.446-.5-3.209,1-7v-3h1v-3h1v-2h1q0.5-3,1-6c1.762-4.372,4.236-9.629,6-14q1-4.5,2-9c10.9-24.786,18.128-53.164,29-78q1-4.5,2-9h1v-3h1v-2h1v-3h1v-3h1v-3h1v-3h1v-3c0.2-.445,3.738-5.867,4-6h68c8.691,21.724,15.215,46.116,24,68q0.5,3,1,6h1v3h1v3h1v3h1v3h1v3h1v3h1v2h1q0.5,3,1,6h1q0.5,3,1,6h1v3h1v3h1v3h1v3h1v3h1q1,4.5,2,9h1q1,4.5,2,9C928.263,600.7,930.794,604.945,931,613Zm233,0c-11.05,1.975-26.3,1.013-39,1-1.38-2.612-1.77-1.693-2-6h1c0.33-2,.67-4,1-6h1v-2h1c0.33-2,.67-4,1-6h1c0.33-2,.67-4,1-6h1v-2h1v-3h1c0.67-3,1.33-6,2-9,11.29-25.794,18.75-55.182,30-81,0.67-3,1.33-6,2-9h1v-3h1v-2h1v-3h1v-3h1v-3h1v-3h1c0.92-2.282,2.48-10.156,4-11h68c0.67,1,1.33,2,2,3h1c0.33,2,.67,4,1,6h1v3h1v3h1v3h1v3h1v3h1v3c7.55,18.9,13.49,40.3,21,59v3h1v3h1v3h1v3h1v3h1v3h1v3h1v3h1v3h1v3h1v3h1c0.33,2,.67,4,1,6h1c0.67,3,1.33,6,2,9,2.49,6.249,6.44,14.145,7,22-7.6,3.934-27.71,2.071-39,2-1.14-1.139,0-.4-2-1q-2.505-6-5-12v-3h-1v-2h-1v-3h-1v-3h-1v-3h-1c-0.33-2-.67-4-1-6h-1c-2.9-2.548-14.07-1-19-1h-51c-0.84,1.135.13,0.145-1,1-0.67,3-1.33,6-2,9h-1v2h-1v3h-1v3h-1v3h-1v3h-1Zm393,0c-9.53,1.7-22.86,1.012-34,1-3.78-7.376-2-23.312-2-34V504h-1v2c-2.25,2.052-.74,2.218-2,5h-1v2h-1v2h-1c-0.33,1.667-.67,3.333-1,5h-1c-0.33,1.333-.67,2.667-1,4h-1v3h-1v2h-1v2h-1v2h-1v3h-1c-0.33,1.333-.67,2.667-1,4h-1v3h-1v2h-1c-0.33,1.333-.67,2.667-1,4h-1v3h-1v2h-1c-0.33,1.333-.67,2.667-1,4h-1v3h-1c-0.33,1.333-.67,2.667-1,4h-1v3h-1v2h-1v2h-1c-1.23,2.363-.84,5.544-3,7-3.71,2.5-21.69,1.007-28,1h-9v-1h-2c-2.15-1.458-1.78-4.624-3-7h-1v-2h-1v-3h-1c-0.33-1.333-.67-2.667-1-4h-1v-2h-1v-3h-1c-0.33-1.333-.67-2.667-1-4h-1v-2h-1v-3h-1c-0.33-1.333-.67-2.667-1-4h-1v-3h-1v-2h-1v-2h-1v-2h-1v-3h-1c-0.33-1.333-.67-2.667-1-4h-1v-2h-1v-3h-1c-0.33-1.333-.67-2.667-1-4h-1v-3h-1v-2h-1q-1.995-5.5-4-11h-1V612l-3,1c-1.67,1.516-5.83,1-9,1-7.74.012-16.78,0.211-23-1-1.4-3.851-1-10.619-1-16V457c4.33-1.591,12.09-1,18-1h34q19.005,42.5,38,85l3-9h1l3-9h1v-3h1c0.33-1.333.67-2.667,1-4h1v-3h1v-2h1c0.33-1.333.67-2.667,1-4h1v-3h1v-2h1c0.33-1.333.67-2.667,1-4h1v-3h1c0.33-1.333.67-2.667,1-4h1v-3h1v-2h1v-2h1v-2h1v-3h1c0.33-1.333.67-2.667,1-4h1c0.33-1.666.67-3.334,1-5h1c0.33-1.333.67-2.667,1-4h1v-3h1v-2h1c0.67-1.228.92-4.409,2-5h51c1.4,3.851,1,10.619,1,16V613Zm191-157h173c0.33,1.666.67,3.334,1,5-3.15,2.113-4.83,6.787-7,10-0.67.333-1.33,0.667-2,1v2c-0.67.333-1.33,0.667-2,1v2l-3,2v2c-0.67.333-1.33,0.667-2,1v2c-1.33,1-2.67,2-4,3v1h-48v73c0,13.327,1.1,29.339-1,41h-2c-2.32,3.824-6.35,4.465-10,7-0.67,1-1.33,2-2,3h-2v1l-3,1c-0.33.667-.67,1.333-1,2h-2c-0.67,1-1.33,2-2,3h-2c-0.33.667-.67,1.333-1,2h-2c-0.33.667-.67,1.333-1,2h-2v1c-1.36.92-1.76,0.706-4,1-1.14-1.139,0-.4-2-1V488c-16.11.085-35.62,1.615-50-1v-2c-3.83-2.307-4.47-6.361-7-10l-3-2v-2c-0.67-.333-1.33-0.667-2-1v-2c-0.67-.333-1.33-0.667-2-1v-2h-1a11.105,11.105,0,0,1-3-7C1748.14,456.861,1747.4,458,1748,456Zm520,157c-12.89,2.3-30.42,1.013-45,1q-22.995-24.5-46-49-3.495-3-7-6v-2h-1l-3-4c-3.21-3.224-6.56-3.75-7-10,3.46-2.008,4.36-5.276,7-8l12-11v-2c0.75-1.015,3.02-1.791,4-3h45c1.21-2.128,2.25-2.177,3-5,2.87-2.662,3.8-13.221,2-18h-1v-3c-0.67-.333-1.33-0.667-2-1-0.33-1-.67-2-1-3h-2c-2.32-2.037-15.4-1-20-1h-56c-3.78,7.376-2,23.312-2,34v79l-3,2v1h-2c-0.33.667-.67,1.333-1,2h-2c-0.33.667-.67,1.333-1,2h-2c-0.67,1-1.33,2-2,3h-2v1l-3,1c-0.33.667-.67,1.333-1,2h-2c-0.67,1-1.33,2-2,3h-2c-0.33.667-.67,1.333-1,2h-2c-0.33.667-.67,1.333-1,2-2.64,1.727-4.61,1.893-9,2V457c8.12-2.961,31.18-1,42-1h94v1l5,1v1h2v1h2c0.67,1,1.33,2,2,3,1.67,1.333,3.33,2.667,5,4v2c0.67,0.333,1.33.667,2,1,0.67,2,1.33,4,2,6h1v2h1v4h1v4h1v6h1v17h-1v7h-1c-0.67,3-1.33,6-2,9h-1c-0.67,2-1.33,4-2,6-0.67.333-1.33,0.667-2,1v2c-1.67,1.333-3.33,2.667-5,4-0.33.667-.67,1.333-1,2h-2c-0.33.667-.67,1.333-1,2l-4,1v1h-3v1h-37v1c5.25,3.034,7.86,8.844,12,13q6.495,6,13,12v2c0.67,0.333,1.33.667,2,1,1.67,2,3.33,4,5,6q4.995,4.5,10,9v2h1c0.67,1,1.33,2,2,3q7.005,6.5,14,13v6Zm-563-32c0.33-1,.67-2,1-3h1v-2h1q0.495-11.5,1-23c2.64-9.609,1.59-28.3,0-38-1.95-11.912,2.72-25.139-8-28-3.28-3.331-13.62-2-20-2h-49v1c-4.05,1.841-6.77,2.294-8,7-4.02,4.068-.17,12.373-2,19-1.29,4.686-1,12.736-1,19v27h1v15h1v4h1c0.33,1,.67,2,1,3,0.67,0.333,1.33.667,2,1v1l4,1v1h69v-1h2v-1Zm338,0c0.33-1,.67-2,1-3h1v-2h1q0.495-11,1-22c2.16-7.866,2.21-31.148,0-39v-8c-0.03-9.293-.61-18.027-8-20-3.22-3.209-12.77-2-19-2-17.85,0-39.29-.99-54,2-1.67,2-3.33,4-5,6q-0.495,10-1,20c-1.3,4.683-1,12.738-1,19v25h1q0.495,10,1,20h1c0.33,1,.67,2,1,3,0.67,0.333,1.33.667,2,1v1l4,1v1h69v-1h2v-1ZM478,551c-0.925-5.778-4.026-12.066-6-17q-0.5-3-1-6h-1v-3h-1v-3h-1v-3h-1v-3h-1v-3h-1v-3h-1q-0.5-3-1-6h-1c-1.567-3.916-2.888-14.465-6-16h-5a8.48,8.48,0,0,1-2,2v3h-1v3h-1v3h-1v3h-1v2h-1v3h-1v3h-1v3h-1v3h-1v3h-1v2h-1q-0.5,3-1,6h-1q-0.5,3-1,6h-1v2h-1v3h-1v3h-1v3c-0.743,1.862-2.132,4.932-3,7h50Zm341,0h50v-1c-2.918-3.177-3.177-10.478-5-15h-1v-3h-1v-2h-1q-0.5-3-1-6h-1v-3h-1v-3h-1v-3h-1v-3h-1v-3h-1q-0.5-3-1-6h-1c-1.185-2.97-3.052-13.932-5-15h-6c-3.188,8.477-6.517,17.991-10,26v3h-1v3h-1v3h-1v3h-1v2h-1q-1,4.5-2,9C822.213,541.45,819.7,545.133,819,551Zm417,0c-0.39-5.694-3.23-10.568-5-15-0.67-3-1.33-6-2-9h-1c-0.33-2-.67-4-1-6h-1v-2h-1v-3h-1c-0.67-3-1.33-6-2-9h-1v-3h-1v-3h-1v-3h-1v-3h-1c-0.33-2-.67-4-1-6h-1v-1h-6q-11.505,31.5-23,63h50Z"/>
</svg>
